<svg id="eWQRUYaHb5x1" xmlns="http://www.w3.org/2000/svg" xmlns:xlink="http://www.w3.org/1999/xlink" viewBox="0 0 300 300" shape-rendering="geometricPrecision" text-rendering="geometricPrecision"><path d="M71.660926,157.031516c-5.945131,1.668956-48.90823,10.921012-48.90823,10.921012c10.864908,82.045864,61.314534,90.574905,95.027171,62.997613C138.652829,213.875838,147.571023,176.888069,150,150l-.000001-139.181562" transform="matrix(-.922807 0 0 0.873439 288.522534 58.584857)" fill="none" stroke="#020202" stroke-width="50"/><path d="M70.35974,157.031516c-5.945131,1.668956-47.607044,10.921012-47.607044,10.921012c10.864908,82.045864,61.314534,90.574905,95.027171,62.997613C138.652829,213.875838,147.571023,176.888069,150,150l-.000001-139.181562" transform="matrix(.922807 0 0 0.873439 11.57895 58.584857)" fill="none" stroke="#020202" stroke-width="50"/><path d="M100.376294,127.20038c48.324711-20.845953,82.535557-5.492715,99.717779,0" transform="matrix(1.656835 0 0 1.041109-98.91491-17.654715)" fill="none" stroke="#000" stroke-width="50"/><ellipse rx="17.5" ry="17.5" transform="matrix(.922807 0 0 0.873439 150.101484 40.463173)" fill="none" stroke="#000" stroke-width="50"/></svg>