<svg id="eZ4rXaEyLus1" xmlns="http://www.w3.org/2000/svg" xmlns:xlink="http://www.w3.org/1999/xlink" viewBox="0 0 1850 556" shape-rendering="geometricPrecision" text-rendering="geometricPrecision"><path d="M32.40157,1024.84604v-555.26998h1855.19686v555.26998h-1855.19686ZM229.5886,573.54542L173.16122,687.87979L46.98575,706.21416l91.30143,88.99689-21.55334,125.66563l112.85477-59.33126l112.85477,59.33126-21.55334-125.66563l91.30143-88.99689L286.016,687.87979L229.5886,573.54542Zm365.2057,0L538.36692,687.87979L412.19145,706.21416l91.30143,88.99689-21.55334,125.66563l112.85477-59.33126l112.85477,59.33126-21.55334-125.66563l91.30143-88.99689L651.2217,687.87979L594.7943,573.54542Zm365.2057,0L903.57262,687.87979L777.39715,706.21416l91.30143,88.99689-21.55334,125.66563l112.85477-59.33126l112.85477,59.33126-21.55334-125.66563l91.30143-88.99689-126.17547-18.33437L960,573.54542Zm365.2057,0l-56.42738,114.33437-126.17547,18.33437l91.30142,88.99689-21.55334,125.66563l112.85477-59.33126l112.85477,59.33126-21.55334-125.66563l91.30142-88.99689-126.17547-18.33437-56.42738-114.33437Zm365.2057,0l-56.42738,114.33437-126.17547,18.33437l91.30143,88.99689-21.55334,125.66563l112.85477-59.33126l112.85477,59.33126-21.55334-125.66563l91.30143-88.99689-126.17547-18.33437-56.4274-114.33437Z" transform="translate(-32.40157-469.57606)" fill="#d2dbed" fill-rule="evenodd" stroke-width="0"/></svg>
